<mxfile host="Electron" modified="2023-10-29T17:59:35.766Z" agent="Mozilla/5.0 (Windows NT 10.0; Win64; x64) AppleWebKit/537.36 (KHTML, like Gecko) draw.io/21.6.8 Chrome/114.0.5735.289 Electron/25.5.0 Safari/537.36" etag="Wa_cJOMtd5FDSTavTdCx" version="21.6.8" type="device">
  <diagram name="Page-1" id="DqfoinxaAvwlBXiG4xTB">
    <mxGraphModel dx="1195" dy="703" grid="1" gridSize="10" guides="1" tooltips="1" connect="1" arrows="1" fold="1" page="1" pageScale="1" pageWidth="850" pageHeight="1100" math="0" shadow="0">
      <root>
        <mxCell id="0" />
        <mxCell id="1" parent="0" />
        <mxCell id="XezBybTQosp3smQB8W79-1" value="«interface»&lt;br&gt;&lt;b&gt;ILogger&lt;/b&gt;" style="html=1;whiteSpace=wrap;fontFamily=Computer Modern;shadow=1;" vertex="1" parent="1">
          <mxGeometry x="530" y="221" width="110" height="50" as="geometry" />
        </mxCell>
        <mxCell id="XezBybTQosp3smQB8W79-2" value="«class»&lt;br&gt;&lt;b&gt;CLogger_STDO&amp;nbsp;&lt;/b&gt;" style="html=1;whiteSpace=wrap;fontFamily=Computer Modern;shadow=1;" vertex="1" parent="1">
          <mxGeometry x="460" y="364" width="110" height="50" as="geometry" />
        </mxCell>
        <mxCell id="XezBybTQosp3smQB8W79-3" value="«class»&lt;br&gt;&lt;b&gt;CLog_Window&amp;nbsp;&amp;nbsp;&lt;/b&gt;" style="html=1;whiteSpace=wrap;fontFamily=Computer Modern;shadow=1;" vertex="1" parent="1">
          <mxGeometry x="600" y="364" width="110" height="50" as="geometry" />
        </mxCell>
        <mxCell id="XezBybTQosp3smQB8W79-4" value="" style="endArrow=none;dashed=1;html=1;rounded=0;exitX=0.5;exitY=0;exitDx=0;exitDy=0;entryX=0.5;entryY=0;entryDx=0;entryDy=0;fontFamily=Computer Modern;" edge="1" parent="1" source="XezBybTQosp3smQB8W79-2" target="XezBybTQosp3smQB8W79-3">
          <mxGeometry width="50" height="50" relative="1" as="geometry">
            <mxPoint x="430" y="360" as="sourcePoint" />
            <mxPoint x="480" y="310" as="targetPoint" />
            <Array as="points">
              <mxPoint x="515" y="340" />
              <mxPoint x="655" y="340" />
            </Array>
          </mxGeometry>
        </mxCell>
        <mxCell id="XezBybTQosp3smQB8W79-6" value="" style="endArrow=block;dashed=1;endFill=0;endSize=12;html=1;rounded=0;entryX=0.5;entryY=1;entryDx=0;entryDy=0;fontFamily=Computer Modern;" edge="1" parent="1" target="XezBybTQosp3smQB8W79-1">
          <mxGeometry width="160" relative="1" as="geometry">
            <mxPoint x="585" y="340" as="sourcePoint" />
            <mxPoint x="510" y="291" as="targetPoint" />
          </mxGeometry>
        </mxCell>
        <mxCell id="XezBybTQosp3smQB8W79-7" value="&amp;lt;&amp;lt;implements&amp;gt;&amp;gt;" style="text;html=1;strokeColor=none;fillColor=none;align=center;verticalAlign=middle;whiteSpace=wrap;rounded=0;fontFamily=Computer Modern;" vertex="1" parent="1">
          <mxGeometry x="590" y="310" width="90" height="20" as="geometry" />
        </mxCell>
        <mxCell id="XezBybTQosp3smQB8W79-8" value="«class»&lt;br&gt;&lt;b&gt;CLogging_System&amp;nbsp;&lt;/b&gt;" style="html=1;whiteSpace=wrap;fontFamily=Computer Modern;shadow=1;" vertex="1" parent="1">
          <mxGeometry x="275" y="221" width="110" height="50" as="geometry" />
        </mxCell>
        <mxCell id="XezBybTQosp3smQB8W79-9" value="" style="endArrow=diamondThin;endFill=0;endSize=24;html=1;rounded=0;entryX=1;entryY=0.75;entryDx=0;entryDy=0;exitX=0;exitY=0.75;exitDx=0;exitDy=0;fontFamily=Computer Modern;" edge="1" parent="1" source="XezBybTQosp3smQB8W79-1" target="XezBybTQosp3smQB8W79-8">
          <mxGeometry width="160" relative="1" as="geometry">
            <mxPoint x="359" y="321" as="sourcePoint" />
            <mxPoint x="359" y="271" as="targetPoint" />
          </mxGeometry>
        </mxCell>
        <mxCell id="XezBybTQosp3smQB8W79-10" value="1" style="text;html=1;strokeColor=none;fillColor=none;align=center;verticalAlign=middle;whiteSpace=wrap;rounded=0;fontFamily=Computer Modern;" vertex="1" parent="1">
          <mxGeometry x="405" y="261" width="10" height="20" as="geometry" />
        </mxCell>
        <mxCell id="XezBybTQosp3smQB8W79-11" value="N" style="text;html=1;strokeColor=none;fillColor=none;align=center;verticalAlign=middle;whiteSpace=wrap;rounded=0;fontFamily=Computer Modern;" vertex="1" parent="1">
          <mxGeometry x="510" y="261" width="10" height="20" as="geometry" />
        </mxCell>
        <mxCell id="XezBybTQosp3smQB8W79-12" value="" style="endArrow=open;endSize=12;dashed=1;html=1;rounded=0;exitX=1;exitY=0.25;exitDx=0;exitDy=0;entryX=0;entryY=0.25;entryDx=0;entryDy=0;fontFamily=Computer Modern;" edge="1" parent="1" source="XezBybTQosp3smQB8W79-8" target="XezBybTQosp3smQB8W79-1">
          <mxGeometry width="160" relative="1" as="geometry">
            <mxPoint x="95" y="331" as="sourcePoint" />
            <mxPoint x="255" y="331" as="targetPoint" />
          </mxGeometry>
        </mxCell>
        <mxCell id="XezBybTQosp3smQB8W79-13" value="&amp;lt;&amp;lt;log a message&amp;gt;&amp;gt;" style="text;html=1;strokeColor=none;fillColor=none;align=center;verticalAlign=middle;whiteSpace=wrap;rounded=0;fontFamily=Computer Modern;" vertex="1" parent="1">
          <mxGeometry x="420" y="210" width="105" height="20" as="geometry" />
        </mxCell>
        <mxCell id="XezBybTQosp3smQB8W79-14" value="logging_system.dll" style="shape=umlFrame;whiteSpace=wrap;html=1;pointerEvents=0;fontFamily=Computer Modern;width=109;height=28;" vertex="1" parent="1">
          <mxGeometry x="250" y="182" width="170" height="108" as="geometry" />
        </mxCell>
        <mxCell id="XezBybTQosp3smQB8W79-16" value="zero_mate.exe" style="shape=umlFrame;whiteSpace=wrap;html=1;pointerEvents=0;fontFamily=Computer Modern;width=87;height=25;" vertex="1" parent="1">
          <mxGeometry x="423" y="305" width="317" height="120" as="geometry" />
        </mxCell>
        <mxCell id="XezBybTQosp3smQB8W79-17" value="Utilized by both the logging system &lt;br&gt;the main executable" style="shape=callout;whiteSpace=wrap;html=1;perimeter=calloutPerimeter;fontFamily=Computer Modern;shadow=1;" vertex="1" parent="1">
          <mxGeometry x="560" y="139" width="120" height="80" as="geometry" />
        </mxCell>
        <mxCell id="XezBybTQosp3smQB8W79-18" value="" style="endArrow=open;endSize=12;dashed=1;html=1;rounded=0;exitX=0.001;exitY=0.534;exitDx=0;exitDy=0;exitPerimeter=0;entryX=0.704;entryY=1.01;entryDx=0;entryDy=0;entryPerimeter=0;fontFamily=Computer Modern;" edge="1" parent="1" source="XezBybTQosp3smQB8W79-16" target="XezBybTQosp3smQB8W79-14">
          <mxGeometry width="160" relative="1" as="geometry">
            <mxPoint x="130" y="440" as="sourcePoint" />
            <mxPoint x="290" y="440" as="targetPoint" />
            <Array as="points">
              <mxPoint x="370" y="369" />
            </Array>
          </mxGeometry>
        </mxCell>
        <mxCell id="XezBybTQosp3smQB8W79-19" value="&amp;lt;&amp;lt;log a message&amp;gt;&amp;gt;" style="text;html=1;strokeColor=none;fillColor=none;align=center;verticalAlign=middle;whiteSpace=wrap;rounded=0;fontFamily=Computer Modern;" vertex="1" parent="1">
          <mxGeometry x="313" y="373" width="105" height="20" as="geometry" />
        </mxCell>
        <mxCell id="XezBybTQosp3smQB8W79-20" value="external_peripheral.dll" style="shape=umlFrame;whiteSpace=wrap;html=1;pointerEvents=0;fontFamily=Computer Modern;width=130;height=26;" vertex="1" parent="1">
          <mxGeometry x="245" y="400" width="160" height="66" as="geometry" />
        </mxCell>
        <mxCell id="XezBybTQosp3smQB8W79-21" value="" style="endArrow=open;endSize=12;dashed=1;html=1;rounded=0;entryX=0.348;entryY=1;entryDx=0;entryDy=0;entryPerimeter=0;exitX=0.411;exitY=-0.008;exitDx=0;exitDy=0;exitPerimeter=0;fontFamily=Computer Modern;" edge="1" parent="1" source="XezBybTQosp3smQB8W79-20" target="XezBybTQosp3smQB8W79-14">
          <mxGeometry width="160" relative="1" as="geometry">
            <mxPoint x="190" y="330" as="sourcePoint" />
            <mxPoint x="350" y="330" as="targetPoint" />
          </mxGeometry>
        </mxCell>
      </root>
    </mxGraphModel>
  </diagram>
</mxfile>
